HIERARCHY
ROOT Hips
{
	OFFSET 0.00000 0.00000 0.00000
	CHANNELS 6 Xposition Yposition Zposition Zrotation Yrotation Xrotation 
	JOINT LHipJoint
	{
		OFFSET 0 0 0
		CHANNELS 3 Zrotation Yrotation Xrotation
		JOINT LeftUpLeg
		{
			OFFSET 1.73240 -1.89999 0.57994
			CHANNELS 3 Zrotation Yrotation Xrotation
			JOINT LeftLeg
			{
				OFFSET 2.43106 -6.67930 0.00000
				CHANNELS 3 Zrotation Yrotation Xrotation
				JOINT LeftFoot
				{
					OFFSET 2.78854 -7.66147 0.00000
					CHANNELS 3 Zrotation Yrotation Xrotation
					JOINT LeftToeBase
					{
						OFFSET 0.17314 -0.47571 2.01064
						CHANNELS 3 Zrotation Yrotation Xrotation
						End Site
						{
							OFFSET 0.00000 -0.00000 1.04147
						}
					}
				}
			}
		}
	}
	JOINT RHipJoint
	{
		OFFSET 0 0 0
		CHANNELS 3 Zrotation Yrotation Xrotation
		JOINT RightUpLeg
		{
			OFFSET -1.57078 -1.89998 0.57994
			CHANNELS 3 Zrotation Yrotation Xrotation
			JOINT RightLeg
			{
				OFFSET -2.50166 -6.87326 0.00000
				CHANNELS 3 Zrotation Yrotation Xrotation
				JOINT RightFoot
				{
					OFFSET -2.77304 -7.61886 0.00000
					CHANNELS 3 Zrotation Yrotation Xrotation
					JOINT RightToeBase
					{
						OFFSET -0.23513 -0.64602 2.11039
						CHANNELS 3 Zrotation Yrotation Xrotation
						End Site
						{
							OFFSET -0.00000 -0.00000 1.10597
						}
					}
				}
			}
		}
	}
	JOINT LowerBack
	{
		OFFSET 0 0 0
		CHANNELS 3 Zrotation Yrotation Xrotation
		JOINT Spine
		{
			OFFSET -0.00908 2.00015 -0.35323
			CHANNELS 3 Zrotation Yrotation Xrotation
			JOINT Spine1
			{
				OFFSET 0.05647 2.02258 0.04270
				CHANNELS 3 Zrotation Yrotation Xrotation
				JOINT Neck
				{
					OFFSET 0 0 0
					CHANNELS 3 Zrotation Yrotation Xrotation
					JOINT Neck1
					{
						OFFSET -0.02074 1.73711 0.13117
						CHANNELS 3 Zrotation Yrotation Xrotation
						JOINT Head
						{
							OFFSET -0.02359 1.73615 -0.24320
							CHANNELS 3 Zrotation Yrotation Xrotation
							End Site
							{
								OFFSET -0.00579 1.75982 -0.09688
							}
						}
					}
				}
				JOINT LeftShoulder
				{
					OFFSET 0 0 0
					CHANNELS 3 Zrotation Yrotation Xrotation
					JOINT LeftArm
					{
						OFFSET 3.20537 1.11432 -0.27680
						CHANNELS 3 Zrotation Yrotation Xrotation
						JOINT LeftForeArm
						{
							OFFSET 5.05923 -0.00000 -0.00000
							CHANNELS 3 Zrotation Yrotation Xrotation
							JOINT LeftHand
							{
								OFFSET 3.51996 -0.00000 0.00000
								CHANNELS 3 Zrotation Yrotation Xrotation
								JOINT LeftFingerBase
								{
									OFFSET 0 0 0
									CHANNELS 3 Zrotation Yrotation Xrotation
									JOINT LeftHandIndex1
									{
										OFFSET 0.65238 -0.00000 0.00000
										CHANNELS 3 Zrotation Yrotation Xrotation
										End Site
										{
											OFFSET 0.52596 -0.00000 0.00000
										}
									}
								}
								JOINT LThumb
								{
									OFFSET 0 0 0
									CHANNELS 3 Zrotation Yrotation Xrotation
									End Site
									{
										OFFSET 0.53399 -0.00000 0.53399
									}
								}
							}
						}
					}
				}
				JOINT RightShoulder
				{
					OFFSET 0 0 0
					CHANNELS 3 Zrotation Yrotation Xrotation
					JOINT RightArm
					{
						OFFSET -2.96983 1.42602 -0.37449
						CHANNELS 3 Zrotation Yrotation Xrotation
						JOINT RightForeArm
						{
							OFFSET -5.40867 -0.00000 0.00000
							CHANNELS 3 Zrotation Yrotation Xrotation
							JOINT RightHand
							{
								OFFSET -3.12964 -0.00000 0.00000
								CHANNELS 3 Zrotation Yrotation Xrotation
								JOINT RightFingerBase
								{
									OFFSET 0 0 0
									CHANNELS 3 Zrotation Yrotation Xrotation
									JOINT RightHandIndex1
									{
										OFFSET -0.83271 -0.00000 0.00000
										CHANNELS 3 Zrotation Yrotation Xrotation
										End Site
										{
											OFFSET -0.67135 -0.00000 0.00000
										}
									}
								}
								JOINT RThumb
								{
									OFFSET 0 0 0
									CHANNELS 3 Zrotation Yrotation Xrotation
									End Site
									{
										OFFSET -0.68160 -0.00000 0.68160
									}
								}
							}
						}
					}
				}
			}
		}
	}
}
MOTION
Frames: 13
Frame Time: .0083333
2.1363 16.9546 4.1843 96.6428 -79.9118 -94.3244 0.0000 0.0000 0.0000 -0.3809 -9.6508 -13.2501 4.4603 12.7489 38.4358 -0.1449 6.7448 -2.9005 0.5812 -4.8816 -13.5711 0.0000 0.0000 0.0000 2.4746 9.2988 -33.6372 -9.8924 -17.3489 59.1282 -1.4135 -1.7595 -23.1595 -0.6124 5.0087 -13.9333 -0.6497 0.0194 40.3846 3.6810 -0.9024 7.9382 4.7874 -0.8971 -10.6354 -2.5352 0.4214 -12.3082 -10.1140 2.5987 16.4414 -2.6375 0.0620 7.2158 0.0000 0.0000 0.0000 -87.7746 14.3915 20.3230 31.8976 -42.4654 -12.6716 -0.0000 0.0000 -8.3936 22.0263 47.0675 16.4993 -7.1250 0.0000 -0.0000 -37.5619 76.7957 -28.7388 0.0000 0.0000 0.0000 55.5402 21.6287 2.1860 -82.7027 59.7978 -53.6847 0.0000 0.0000 19.2774 -14.9703 9.1370 -2.4314 7.1250 -0.0000 -0.0000 8.5713 -20.5751 5.0685
2.1809 16.9158 4.3735 97.2894 -79.9568 -94.9497 0.0000 0.0000 0.0000 -0.0962 -10.0462 -12.7450 4.2944 12.5422 37.6780 -0.1719 7.3756 -1.8224 1.0185 -6.4204 -18.0093 0.0000 0.0000 0.0000 1.6609 9.4437 -34.0360 -9.9506 -17.3820 59.3232 -1.3950 -1.2824 -22.8182 -0.5594 4.7906 -13.3123 -0.5102 -0.2342 40.3195 3.6924 -1.1662 7.9608 4.8365 -1.0238 -10.5683 -2.7469 0.6952 -12.6200 -10.4052 3.0862 16.4914 -2.6530 0.2388 7.3154 -0.0000 -0.0000 0.0000 -88.2503 14.1733 20.3182 31.8702 -42.4434 -12.6531 -0.0000 0.0000 -8.1924 23.4904 46.7910 17.5768 -7.1250 0.0000 -0.0000 -34.9936 77.1925 -26.9546 -0.0000 -0.0000 0.0000 56.5018 22.5881 4.7652 -78.9065 59.5298 -50.4080 0.0000 0.0000 21.1259 -17.6710 9.6820 -3.0669 7.1250 -0.0000 -0.0000 6.6336 -19.8621 4.0119
2.2128 16.8874 4.5449 101.2380 -79.9985 -99.3133 0.0000 0.0000 0.0000 0.1388 -9.8900 -11.5611 4.1560 12.3652 37.0363 -0.1711 7.4335 -1.2915 1.4595 -7.6357 -21.6128 0.0000 0.0000 0.0000 1.0981 10.5184 -33.6482 -9.9921 -17.4054 59.4619 -1.3872 -1.1560 -22.7053 -0.4974 4.5215 -12.5488 -0.6047 0.1686 40.7063 3.7015 -0.7372 8.0543 4.7204 -0.8422 -10.6201 -2.6117 0.6337 -12.4878 -10.4495 2.9601 16.3159 -2.6989 0.1971 7.2303 -0.0000 0.0000 0.0000 -88.2331 13.8484 21.2291 31.9039 -42.4704 -12.6759 -0.0000 0.0000 -8.8410 25.3856 46.3242 18.9425 -7.1250 0.0000 -0.0000 -31.1487 77.6213 -24.1493 -0.0000 0.0000 0.0000 57.6279 22.9575 6.6530 -74.4242 59.0632 -46.5534 0.0000 0.0000 22.9092 -20.2147 10.3832 -3.7969 7.1250 -0.0000 -0.0000 4.8295 -18.9529 3.0098
2.2615 16.8511 4.7361 103.1670 -79.7528 -101.4160 0.0000 0.0000 0.0000 0.1479 -9.7999 -10.8278 3.9984 12.1582 36.2941 -0.1605 7.2552 -0.9865 1.3658 -7.3968 -20.8963 0.0000 0.0000 0.0000 0.1183 10.8372 -33.7835 -10.0384 -17.4314 59.6167 -1.3645 -0.8931 -22.4212 -0.5402 4.7091 -13.0808 -0.7744 0.5026 40.8926 3.6510 -0.4081 8.0654 4.6173 -0.6920 -10.6925 -2.1626 0.5735 -12.5833 -10.7270 2.8566 16.4561 -2.8783 0.1416 7.2964 0.0000 -0.0000 0.0000 -88.2842 13.5243 21.8158 31.8140 -42.3984 -12.6153 -0.0000 0.0000 -7.4533 24.1325 46.1653 17.9089 -7.1250 0.0000 -0.0000 -32.2197 76.9979 -24.6123 0.0000 -0.0000 0.0000 57.8283 23.2231 7.9801 -69.1041 58.2841 -42.0079 0.0000 0.0000 24.0041 -22.3260 11.4270 -4.6513 7.1250 -0.0000 -0.0000 3.3702 -17.6670 2.1923
2.3209 16.8178 4.9532 102.3460 -80.1804 -100.2100 0.0000 0.0000 0.0000 0.8034 -10.5717 -11.0120 3.8667 11.9809 35.6644 -0.1478 7.0424 -0.6248 1.3643 -7.3928 -20.8845 0.0000 0.0000 0.0000 -0.5091 10.4377 -34.6302 -10.0396 -17.4321 59.6206 -1.3393 -0.0788 -21.9216 -0.4170 4.1449 -11.4848 -0.3429 0.0648 40.5832 3.9270 -0.7176 7.9594 4.8210 -0.8340 -10.6923 -2.6942 0.7855 -13.0282 -10.8715 3.3203 16.6739 -2.7981 0.2844 7.4715 0.0000 -0.0000 0.0000 -89.2735 13.2926 20.6131 31.5640 -42.1968 -12.4470 -0.0000 0.0000 -3.2392 17.3535 45.6786 12.6021 -7.1250 0.0000 -0.0000 -38.5453 74.0323 -27.4314 0.0000 -0.0000 0.0000 58.2602 24.4339 10.0307 -63.0912 57.0789 -36.9248 0.0000 0.0000 26.0080 -24.0716 12.4644 -5.5073 7.1250 -0.0000 -0.0000 2.2028 -16.3772 1.4935
2.3721 16.7868 5.0943 106.6840 -80.8810 -104.6530 0.0000 0.0000 0.0000 1.9995 -10.4970 -10.3247 3.7355 11.7998 35.0274 -0.1157 6.2512 -0.4897 1.5316 -7.8134 -22.1487 0.0000 0.0000 0.0000 -0.2146 11.3506 -34.5518 -10.0051 -17.4127 59.5054 -1.3433 0.5360 -21.7538 -0.1999 2.8788 -7.9414 -0.1674 0.7810 40.9512 4.2184 0.2735 7.9180 4.6294 -0.3947 -10.9389 -2.4178 0.4039 -12.8056 -10.6630 2.6824 16.5210 -2.8350 0.0378 7.3470 -0.0000 -0.0000 0.0000 -88.6663 13.1713 23.2730 32.0154 -42.5595 -12.7513 -0.0000 0.0000 -5.0785 22.0069 45.9008 16.1852 -7.1250 0.0000 -0.0000 -33.9818 75.9631 -25.3170 -0.0000 -0.0000 0.0000 59.5762 24.8001 10.1101 -57.1457 55.5001 -31.9772 0.0000 0.0000 29.2056 -25.4007 12.6722 -5.9470 7.1250 -0.0000 -0.0000 1.2967 -16.0045 0.8892
2.4135 16.7622 5.2918 108.4290 -81.4055 -106.3440 0.0000 0.0000 0.0000 2.6303 -11.0338 -10.0228 3.6502 11.6797 34.6081 -0.0842 5.3248 -0.4581 1.4472 -7.6047 -21.5197 0.0000 0.0000 0.0000 -0.4631 11.5398 -34.6943 -9.9300 -17.3703 59.2541 -1.3037 0.8982 -21.3164 -0.1684 2.6434 -7.2874 0.4381 0.7896 40.7698 4.4092 0.5470 7.9722 4.3978 -0.2897 -10.8332 -2.7133 0.2909 -12.9356 -10.5522 2.5791 16.5691 -2.7617 -0.0267 7.3783 0.0000 0.0000 0.0000 -88.6021 12.8805 24.6296 32.2026 -42.7081 -12.8780 -0.0000 0.0000 -5.7589 23.8126 45.9081 17.5867 -7.1250 0.0000 -0.0000 -31.8300 76.6789 -24.1020 0.0000 0.0000 0.0000 59.9180 25.9049 10.5659 -50.9566 53.3741 -26.9400 0.0000 0.0000 32.0337 -26.0618 12.6957 -6.1348 7.1250 -0.0000 -0.0000 0.8424 -15.9025 0.5794
2.4535 16.7388 5.5114 109.1320 -81.4278 -107.1430 0.0000 0.0000 0.0000 2.4806 -11.4541 -9.5730 3.5462 11.5308 34.0915 -0.0450 4.0200 0.0522 1.4831 -7.6942 -21.7891 0.0000 0.0000 0.0000 -1.2762 11.3330 -34.7099 -9.8276 -17.3118 58.9106 -1.2466 1.0455 -20.7935 -0.2437 3.1765 -8.7706 0.6388 0.6470 40.6491 4.4393 0.4264 8.1212 4.3726 -0.3600 -10.6125 -3.0216 0.3945 -13.2365 -10.6529 2.8194 16.5559 -2.7217 0.0479 7.4406 0.0000 0.0000 0.0000 -89.1811 12.3192 24.5394 32.1095 -42.6343 -12.8150 -0.0000 0.0000 -5.4394 23.1066 45.3230 16.8778 -7.1250 0.0000 -0.0000 -31.0167 75.9593 -23.0161 0.0000 0.0000 0.0000 59.6958 27.5353 11.3461 -45.2251 50.8783 -22.4132 0.0000 0.0000 34.0955 -25.9770 12.9243 -6.2194 7.1250 -0.0000 -0.0000 0.9171 -15.6611 0.6356
2.5161 16.7092 5.7246 108.1850 -81.5605 -106.0010 0.0000 0.0000 0.0000 2.5465 -11.7343 -9.7750 3.4396 11.3749 33.5548 -0.0083 2.3976 1.0165 1.7489 -8.3223 -23.6974 0.0000 0.0000 0.0000 -2.0589 11.0913 -35.0433 -9.7196 -17.2491 58.5469 -1.1887 0.7463 -20.3825 -0.3603 3.8561 -10.6721 0.8743 0.5272 40.4028 4.4892 0.3861 8.1088 4.3168 -0.3783 -10.5409 -3.3081 0.3228 -13.3998 -10.5561 2.7645 16.4315 -2.6467 0.0143 7.4238 0.0000 0.0000 0.0000 -89.6309 11.9180 24.7348 32.1307 -42.6511 -12.8293 -0.0000 0.0000 -4.7753 21.3950 44.4481 15.3421 -7.1250 0.0000 -0.0000 -30.8245 74.6310 -22.0357 0.0000 0.0000 0.0000 59.6706 28.8330 11.6467 -40.4505 48.3345 -18.7751 0.0000 0.0000 35.4812 -25.2728 12.7107 -5.9306 7.1250 -0.0000 -0.0000 1.3875 -15.9770 0.9523
2.5448 16.6936 5.9445 111.1390 -81.2852 -109.3750 0.0000 0.0000 0.0000 1.8856 -11.7809 -8.7804 3.3197 11.1954 32.9417 0.0060 1.6526 1.6838 2.0890 -9.0490 -25.9486 0.0000 0.0000 0.0000 -3.0062 11.4549 -34.5346 -9.5820 -17.1680 58.0819 -1.1479 0.8868 -19.9823 -0.4263 4.1904 -11.6129 0.8729 0.9083 40.6141 4.4174 0.8166 8.2658 4.0559 -0.1968 -10.4556 -3.4750 0.0306 -13.5719 -10.3930 2.3860 16.4505 -2.6058 -0.1657 7.4413 0.0000 0.0000 0.0000 -89.5263 11.5213 25.9512 32.2123 -42.7158 -12.8846 -0.0000 0.0000 -4.4454 13.0594 42.7706 8.9514 -7.1250 0.0000 -0.0000 -36.5654 70.3972 -23.1734 0.0000 0.0000 0.0000 59.6908 29.8519 11.1148 -36.2329 45.6727 -15.6889 0.0000 0.0000 35.7902 -24.5642 12.2597 -5.5436 7.1250 -0.0000 -0.0000 1.8497 -16.5471 1.2470
2.5805 16.6753 6.1183 119.5600 -81.0378 -118.5670 0.0000 0.0000 0.0000 1.8214 -10.4850 -7.3732 3.2112 11.0293 32.3787 0.0168 0.2670 2.3636 2.4518 -9.7497 -28.1699 0.0000 0.0000 0.0000 -3.1644 12.8560 -33.5674 -9.4306 -17.0770 57.5678 -1.1128 0.9994 -19.6356 -0.3985 4.0529 -11.2254 0.0306 2.0544 41.3420 4.8387 1.8624 8.5460 4.5095 0.2483 -10.4912 -3.5289 -0.1310 -13.5498 -10.5212 2.1732 16.2322 -2.6571 -0.2711 7.3596 0.0000 0.0000 0.0000 -89.9657 10.9313 26.5451 32.0931 -42.6213 -12.8038 -0.0000 0.0000 -3.9915 11.1610 42.5312 7.5968 -7.1250 0.0000 -0.0000 -38.1009 69.5918 -23.5841 0.0000 0.0000 0.0000 59.5169 31.0855 10.1308 -32.4918 42.9358 -13.0746 0.0000 0.0000 35.2081 -22.8574 12.1552 -5.0723 7.1250 -0.0000 -0.0000 3.0298 -16.8353 2.0253
2.6237 16.6568 6.3470 113.5650 -80.7270 -112.2920 0.0000 0.0000 0.0000 0.6459 -11.6531 -7.7507 3.1405 10.9192 32.0077 0.0145 -0.5223 2.5289 2.8657 -10.4744 -30.5270 0.0000 0.0000 0.0000 -4.9845 11.9683 -33.8394 -9.2514 -16.9668 56.9556 -1.0553 1.2062 -19.0534 -0.4294 4.2054 -11.6552 -0.2818 1.9641 40.9971 4.8837 1.6738 8.4266 4.8024 0.1901 -10.5190 -3.4277 -0.2171 -13.5998 -10.9059 2.0887 16.1482 -2.8093 -0.3411 7.3450 0.0000 -0.0000 0.0000 -90.3724 10.5351 27.0573 32.0724 -42.6048 -12.7898 -0.0000 0.0000 -3.7488 12.0657 43.1950 8.3240 -7.1250 0.0000 -0.0000 -38.4452 70.3808 -24.4627 0.0000 -0.0000 0.0000 59.5638 32.2362 8.7995 -29.3328 40.3146 -10.9754 0.0000 0.0000 34.5230 -20.2859 11.6928 -4.2841 7.1250 -0.0000 -0.0000 4.8070 -17.5639 3.1434
2.6642 16.6392 6.6059 113.5780 -81.1220 -112.1870 0.0000 0.0000 0.0000 0.4768 -12.1329 -7.8709 3.1418 10.9211 32.0143 -0.0042 -1.3363 1.2111 3.8323 -11.9338 -35.4982 0.0000 0.0000 0.0000 -5.5756 11.7387 -33.7206 -9.0112 -16.8149 56.1288 -0.9843 1.0431 -18.4319 -0.5173 4.6099 -12.7991 0.6576 1.6800 40.8013 4.8818 1.7280 8.3250 4.2842 0.2075 -10.5394 -3.4362 -0.3064 -13.5893 -11.0332 1.9890 16.1965 -2.8615 -0.4049 7.3570 0.0000 0.0000 0.0000 -90.2985 10.4871 27.9605 32.3295 -42.8083 -12.9642 -0.0000 0.0000 -3.9565 12.6250 43.7330 8.8018 -7.1250 0.0000 -0.0000 -38.9624 70.9616 -25.2991 0.0000 0.0000 0.0000 59.8512 33.0951 7.1398 -26.6099 37.8046 -9.2590 0.0000 0.0000 33.8952 -17.9506 10.2617 -3.3030 7.1250 -0.0000 -0.0000 6.4335 -19.2413 3.9790
